<?xml version="1.0" encoding="iso-8859-1"?>
<!-- Uploaded to: SVG Repo, www.svgrepo.com, Generator: SVG Repo Mixer Tools -->
<svg height="800px" width="800px" version="1.1" id="Layer_1" xmlns="http://www.w3.org/2000/svg" xmlns:xlink="http://www.w3.org/1999/xlink" 
	 viewBox="0 0 512.002 512.002" xml:space="preserve">
<polygon style="fill:#F4B2B0;" points="306.116,170.102 233.092,170.102 233.092,97.077 170.055,97.077 170.055,170.102 
	97.03,170.102 97.03,233.14 170.055,233.14 170.055,306.165 233.092,306.165 233.092,233.14 306.116,233.14 "/>
<g>
	<path style="fill:#B3404A;" d="M233.092,321.642h-63.038c-8.548,0-15.477-6.929-15.477-15.477v-57.548H97.03
		c-8.548,0-15.477-6.929-15.477-15.477v-63.038c0-8.548,6.929-15.477,15.477-15.477h57.548V97.079
		c0-8.548,6.929-15.477,15.477-15.477h63.038c8.548,0,15.477,6.929,15.477,15.477v57.548h57.548c8.546,0,15.477,6.929,15.477,15.477
		v63.038c0,8.548-6.931,15.477-15.477,15.477h-57.548v57.548C248.569,314.712,241.64,321.642,233.092,321.642z M185.532,290.688
		h32.084V233.14c0-8.548,6.929-15.477,15.477-15.477h57.548v-32.084h-57.548c-8.548,0-15.477-6.929-15.477-15.477v-57.546h-32.084
		v57.548c0,8.548-6.929,15.477-15.477,15.477h-57.548v32.084h57.548c8.548,0,15.477,6.929,15.477,15.477V290.688z"/>
	<path style="fill:#B3404A;" d="M201.574,403.148c-51.629,0-103.261-19.653-142.567-58.958c-78.612-78.612-78.612-206.523,0-285.136
		C97.087,20.973,147.719,0,201.574,0S306.06,20.973,344.141,59.054c31.794,31.793,51.636,72.113,57.384,116.602
		c1.094,8.478-4.889,16.237-13.367,17.333c-8.48,1.097-16.238-4.889-17.333-13.366c-4.863-37.645-21.658-71.768-48.573-98.681
		c-32.234-32.235-75.092-49.987-120.678-49.987s-88.444,17.752-120.68,49.987c-66.543,66.543-66.543,174.818,0,241.36
		c66.543,66.543,174.817,66.543,241.358,0c18.154-18.154,31.674-39.528,40.18-63.528c2.857-8.057,11.708-12.272,19.759-9.416
		c8.056,2.855,12.273,11.702,9.418,19.758c-10.058,28.377-26.029,53.635-47.468,75.075
		C304.834,383.495,253.205,403.148,201.574,403.148z"/>
</g>
<circle style="fill:#F4B2B0;" cx="446.725" cy="446.772" r="49.758"/>
<path style="fill:#B3404A;" d="M492.846,400.642c-12.321-12.32-28.702-19.106-46.127-19.106c-12.14,0-23.768,3.303-33.874,9.467
	l-21.595-21.596c-6.045-6.044-15.842-6.044-21.889,0c-6.044,6.044-6.044,15.844,0,21.889l21.595,21.595
	c-6.164,10.106-9.467,21.736-9.467,33.877c0,17.424,6.785,33.806,19.106,46.127c12.321,12.32,28.702,19.106,46.126,19.106
	c17.425,0,33.806-6.785,46.127-19.106c12.321-12.321,19.106-28.702,19.106-46.127S505.168,412.962,492.846,400.642z
	 M470.957,471.006c-6.474,6.476-15.082,10.04-24.238,10.04c-9.155,0-17.764-3.566-24.237-10.04
	c-6.476-6.474-10.04-15.082-10.04-24.238c0-9.156,3.566-17.764,10.04-24.238c6.474-6.476,15.082-10.04,24.237-10.04
	c9.156,0,17.766,3.566,24.238,10.04c6.476,6.474,10.04,15.082,10.04,24.238C480.997,455.924,477.433,464.532,470.957,471.006z"/>
</svg>