<?xml version="1.0" encoding="iso-8859-1"?>
<!-- Uploaded to: SVG Repo, www.svgrepo.com, Generator: SVG Repo Mixer Tools -->
<svg version="1.1" id="Layer_1" xmlns="http://www.w3.org/2000/svg" xmlns:xlink="http://www.w3.org/1999/xlink" 
	 viewBox="0 0 512.002 512.002" xml:space="preserve">
<rect x="97.031" y="170.107" style="fill:#F4B2B0;" width="209.078" height="63.038"/>
<g>
	<path style="fill:#B3404A;" d="M306.117,248.617H97.03c-8.546,0-15.477-6.929-15.477-15.477v-63.038
		c0-8.548,6.931-15.477,15.477-15.477h209.087c8.546,0,15.477,6.929,15.477,15.477v63.038
		C321.594,241.688,314.665,248.617,306.117,248.617z M112.506,217.663H290.64v-32.084H112.506V217.663z"/>
	<path style="fill:#B3404A;" d="M201.573,403.242c-53.855,0-104.486-20.973-142.567-59.052c-78.61-78.612-78.61-206.523,0-285.135
		C97.088,20.973,147.718,0,201.573,0S306.059,20.973,344.14,59.054c31.794,31.793,51.636,72.113,57.384,116.602
		c1.094,8.478-4.889,16.237-13.367,17.333c-8.481,1.097-16.238-4.889-17.333-13.366c-4.863-37.645-21.658-71.768-48.573-98.681
		c-32.232-32.235-75.091-49.987-120.678-49.987S113.129,48.706,80.895,80.941c-66.543,66.543-66.543,174.818,0,241.36
		c66.541,66.543,174.817,66.543,241.358,0c18.154-18.154,31.674-39.528,40.18-63.528c2.857-8.057,11.705-12.272,19.759-9.416
		c8.056,2.855,12.273,11.702,9.418,19.758c-10.058,28.377-26.029,53.635-47.468,75.075
		C306.059,382.269,255.428,403.242,201.573,403.242z"/>
</g>
<circle style="fill:#F4B2B0;" cx="446.726" cy="446.772" r="49.758"/>
<path style="fill:#B3404A;" d="M492.847,400.642c-12.321-12.32-28.702-19.106-46.127-19.106c-12.14,0-23.768,3.303-33.874,9.467
	l-21.596-21.596c-6.045-6.044-15.842-6.044-21.889,0c-6.044,6.044-6.044,15.844,0,21.889l21.595,21.595
	c-6.164,10.106-9.467,21.736-9.467,33.877c0,17.424,6.785,33.806,19.106,46.127c12.321,12.32,28.702,19.106,46.126,19.106
	c17.425,0,33.806-6.785,46.127-19.106c12.321-12.321,19.106-28.702,19.106-46.127S505.168,412.962,492.847,400.642z
	 M470.958,471.006c-6.474,6.476-15.082,10.04-24.238,10.04c-9.155,0-17.764-3.566-24.237-10.04
	c-6.476-6.474-10.04-15.082-10.04-24.238c0-9.156,3.566-17.764,10.04-24.238c6.474-6.476,15.082-10.04,24.237-10.04
	c9.156,0,17.766,3.566,24.238,10.04c6.476,6.474,10.04,15.082,10.04,24.238C480.998,455.924,477.434,464.532,470.958,471.006z"/>
</svg>